<?xml version="1.0" encoding="utf-8"?>
<!-- Generator: Adobe Illustrator 21.0.0, SVG Export Plug-In . SVG Version: 6.00 Build 0)  -->
<svg version="1.1" id="Layer_1" xmlns="http://www.w3.org/2000/svg" xmlns:xlink="http://www.w3.org/1999/xlink" x="0px" y="0px"
	 viewBox="0 0 3000 3000" style="enable-background:new 0 0 3000 3000;" xml:space="preserve">
<style type="text/css">
	.st0{fill:none;stroke:#003876;stroke-miterlimit:10;}
	.st1{fill:#003876;}
</style>
<path class="st0" d="M1500.2,3981C1500.2,3981,1500.2,3981,1500.2,3981c-0.2,0-0.5,0-0.7,0C1499.7,3981,1499.9,3981,1500.2,3981z"/>
<g>
	<path class="st1" d="M1501.7,230c-117.3,0-212.3,95.1-212.3,212.3H1714C1714,325.1,1618.9,230,1501.7,230z"/>
	<rect x="1495.7" y="81.7" class="st1" width="8.3" height="156.7"/>
	<rect x="1443.8" y="183" class="st1" width="111.4" height="8.5"/>
	<path class="st1" d="M1557.1,191.5h-8.1v-26.9c0-2,1.6-3.6,3.6-3.6h5c2,0,3.6,1.6,3.6,3.6v22.8
		C1561.3,189.7,1559.4,191.5,1557.1,191.5z"/>
	<path class="st1" d="M1449.8,191.5h-9c-1.7,0-3-1.3-3-3v-25c0-1.4,1.1-2.5,2.5-2.5h7c1.4,0,2.5,1.1,2.5,2.5V191.5z"/>
	<path class="st1" d="M1504.1,99.5h-8.5c-1.7,0-3.1-1.4-3.1-3.1v-21c0-1.7,1.4-3.1,3.1-3.1h8.5c1.7,0,3.1,1.4,3.1,3.1v21
		C1507.3,98.1,1505.9,99.5,1504.1,99.5z"/>
	<path class="st1" d="M1775.4,514.3h-554.2c-4.2,0-7.6-3.4-7.6-7.6v-22.8c0-4.2,3.4-7.6,7.6-7.6h554.2c4.2,0,7.6,3.4,7.6,7.6v22.8
		C1783,510.9,1779.6,514.3,1775.4,514.3z"/>
	<path class="st1" d="M1775.4,932.5h-554.2c-4.2,0-7.6-3.4-7.6-7.6v-22.8c0-4.2,3.4-7.6,7.6-7.6h554.2c4.2,0,7.6,3.4,7.6,7.6v22.8
		C1783,929.1,1779.6,932.5,1775.4,932.5z"/>
	<path class="st1" d="M1386,859.5h-52.5c-9.1,0-16.5-7.4-16.5-16.5V556c0-9.1,7.4-16.5,16.5-16.5h52.5c9.1,0,16.5,7.4,16.5,16.5v287
		C1402.5,852.1,1395.1,859.5,1386,859.5z"/>
	<path class="st1" d="M1526,859.5h-52.5c-9.1,0-16.5-7.4-16.5-16.5V556c0-9.1,7.4-16.5,16.5-16.5h52.5c9.1,0,16.5,7.4,16.5,16.5v287
		C1542.5,852.1,1535.1,859.5,1526,859.5z"/>
	<path class="st1" d="M1666,859.5h-52.5c-9.1,0-16.5-7.4-16.5-16.5V556c0-9.1,7.4-16.5,16.5-16.5h52.5c9.1,0,16.5,7.4,16.5,16.5v287
		C1682.5,852.1,1675.1,859.5,1666,859.5z"/>
	<path class="st1" d="M1095.4,960.1C549.3,1141.7,144.1,1681.4,104,2331.5h212.5C344.7,1698.6,660.8,1167.3,1095.4,960.1z"/>
	<path class="st1" d="M1904.3,959.8c434.9,207,751.4,738.5,779.6,1371.7h212.7C2856.6,1681,2450.9,1141.1,1904.3,959.8z"/>
	<path class="st1" d="M1253.6,1030.7C830,1177.9,507.4,1695.9,462.5,2331.5h348.9C828.7,1735.8,1007.3,1234.8,1253.6,1030.7z"/>
	<path class="st1" d="M1746.6,1030.6c246.5,204,425.1,705.1,442.4,1300.9h349.1C2493.2,1695.7,2170.5,1177.6,1746.6,1030.6z"/>
	<path class="st1" d="M962.2,2331.5H1429V1052.2C1167.6,1256.4,979.1,1748.3,962.2,2331.5z"/>
	<path class="st1" d="M2044.6,2331.5c-17-587.9-208.4-1083-473.1-1284.2v1284.2H2044.6z"/>
	<g>
		<path class="st1" d="M1500,2484.5H24.6c-4.2,0-7.6-3.4-7.6-7.6v-26.6c0-4.2,3.4-7.6,7.6-7.6H1500V2484.5z"/>
		<path class="st1" d="M1500,2831H24.6c-4.2,0-7.6-3.4-7.6-7.6v-85.3c0-4.2,3.4-7.6,7.6-7.6H1500V2831z"/>
		<path class="st1" d="M952.3,2692.5h-128c-7.9,0-14.3-6.4-14.3-14.3v-130c0-7.9,6.4-14.3,14.3-14.3h128c7.9,0,14.3,6.4,14.3,14.3
			v130C966.5,2686.1,960.1,2692.5,952.3,2692.5z"/>
		<path class="st1" d="M1563.8,2692.5h-128c-7.9,0-14.3-6.4-14.3-14.3v-130c0-7.9,6.4-14.3,14.3-14.3h128c7.9,0,14.3,6.4,14.3,14.3
			v130C1578,2686.1,1571.6,2692.5,1563.8,2692.5z"/>
		<path class="st1" d="M447.3,2692.5h-128c-7.9,0-14.3-6.4-14.3-14.3v-130c0-7.9,6.4-14.3,14.3-14.3h128c7.9,0,14.3,6.4,14.3,14.3
			v130C461.5,2686.1,455.1,2692.5,447.3,2692.5z"/>
		<path class="st1" d="M966.5,2395.3c0-7.9-6.4-14.3-14.3-14.3h-128c-7.9,0-14.3,6.4-14.3,14.3v68.4h156.5V2395.3z"/>
		<path class="st1" d="M1578,2396.7c0-7.9-6.4-14.3-14.3-14.3h-128c-7.9,0-14.3,6.4-14.3,14.3v66.9H1578V2396.7z"/>
		<path class="st1" d="M461.5,2395.3c0-7.9-6.4-14.3-14.3-14.3h-128c-7.9,0-14.3,6.4-14.3,14.3v68.4h156.5V2395.3z"/>
	</g>
	<g>
		<path class="st1" d="M1499.5,2484.5h1475.4c4.2,0,7.6-3.4,7.6-7.6v-26.6c0-4.2-3.4-7.6-7.6-7.6H1499.5V2484.5z"/>
		<path class="st1" d="M1499.5,2831h1475.4c4.2,0,7.6-3.4,7.6-7.6v-85.3c0-4.2-3.4-7.6-7.6-7.6H1499.5V2831z"/>
		<path class="st1" d="M2047.3,2692.5h128c7.9,0,14.3-6.4,14.3-14.3v-130c0-7.9-6.4-14.3-14.3-14.3h-128c-7.9,0-14.3,6.4-14.3,14.3
			v130C2033,2686.1,2039.4,2692.5,2047.3,2692.5z"/>
		<path class="st1" d="M1435.8,2692.5h128c7.9,0,14.3-6.4,14.3-14.3v-130c0-7.9-6.4-14.3-14.3-14.3h-128c-7.9,0-14.3,6.4-14.3,14.3
			v130C1421.5,2686.1,1427.9,2692.5,1435.8,2692.5z"/>
		<path class="st1" d="M2552.3,2692.5h128c7.9,0,14.3-6.4,14.3-14.3v-130c0-7.9-6.4-14.3-14.3-14.3h-128c-7.9,0-14.3,6.4-14.3,14.3
			v130C2538,2686.1,2544.4,2692.5,2552.3,2692.5z"/>
		<path class="st1" d="M2033,2395.3c0-7.9,6.4-14.3,14.3-14.3h128c7.9,0,14.3,6.4,14.3,14.3v68.4H2033V2395.3z"/>
		<path class="st1" d="M1421.5,2396.7c0-7.9,6.4-14.3,14.3-14.3h128c7.9,0,14.3,6.4,14.3,14.3v66.9h-156.5V2396.7z"/>
		<path class="st1" d="M2538,2395.3c0-7.9,6.4-14.3,14.3-14.3h128c7.9,0,14.3,6.4,14.3,14.3v68.4H2538V2395.3z"/>
	</g>
</g>
</svg>
